<svg xmlns="http://www.w3.org/2000/svg" width="32" height="32" viewBox="0 0 32 32" fill="none">
  <style>
    .favicon {
      fill: black;
    }
    @media (prefers-color-scheme: dark) {
      .favicon {
        fill: white;
      }
    }
  </style>
  <path class="favicon" fill="white" fill-rule="evenodd" clip-rule="evenodd" d="M16.5257 11.2618H15.4678L15.4666 11.263C13.4267 11.263 11.4698 10.4523 10.0267 9.00922L4.43634 2.51187H7.69321C8.53708 2.51187 9.34059 2.8763 9.89828 3.51099L14.5298 8.78298V0H17.6326V8.59098L22.0953 3.50854C22.6518 2.87507 23.4553 2.51064 24.3004 2.51064H27.5597L21.9657 9.00799C20.5225 10.451 18.5657 11.2618 16.5257 11.2618ZM15.4703 20.7357H16.5282V20.737C18.5682 20.737 20.525 21.5477 21.9681 22.9908L27.5585 29.4881H24.3016C23.4577 29.4881 22.6542 29.1249 22.0965 28.4902L17.4662 23.217V32H14.3635V23.4066L9.90073 28.489C9.34426 29.1225 8.54075 29.4869 7.69565 29.4869H4.43634L10.0304 22.9896C11.4735 21.5465 13.4303 20.7357 15.4703 20.7357ZM2.51205 24.303V27.5596L9.00988 21.9697C10.453 20.5266 11.2639 18.5699 11.2639 16.5301V15.4723C11.2639 13.4325 10.453 11.4758 9.00988 10.0328L2.51205 4.43794V7.69701C2.51205 8.54204 2.87651 9.3455 3.51125 9.90193L8.59406 14.3643H0V17.4669H8.78362L3.51002 22.0968C2.87528 22.6545 2.51083 23.4579 2.51083 24.3018L2.51205 24.303ZM23.2152 14.5294H31.9988H32V17.632H23.4059L28.4887 22.0944C29.1223 22.6508 29.4867 23.4543 29.4867 24.2993V27.5584L22.9889 21.9648C21.5457 20.5217 20.7349 18.5651 20.7349 16.5252V15.4674C20.7349 13.4276 21.5457 11.4709 22.9889 10.0279L29.4867 4.43794V7.69456C29.4867 8.53838 29.1235 9.34183 28.4887 9.89948L23.2152 14.5294Z"/>
</svg>