<svg width="180" height="180" viewBox="0 0 180 180" fill="none" xmlns="http://www.w3.org/2000/svg">
<rect width="180" height="180" fill="black"/>
<path fill-rule="evenodd" clip-rule="evenodd" d="M91.9715 72.2318H88.0044L87.9998 72.2364C80.3499 72.2364 73.0119 69.196 67.6001 63.7846L46.6363 39.4195H58.8495C62.014 39.4195 65.0272 40.7861 67.1185 43.1662L84.4867 62.9362V30H96.1221V62.2162L112.857 43.157C114.944 40.7815 117.957 39.4149 121.126 39.4149H133.349L112.371 63.78C106.959 69.1914 99.6214 72.2318 91.9715 72.2318ZM88.0136 107.759H91.9807V107.764C99.6306 107.764 106.969 110.804 112.38 116.215L133.344 140.581H121.131C117.966 140.581 114.953 139.219 112.862 136.838L95.4984 117.064V150H83.863V117.775L67.1277 136.834C65.041 139.209 62.0278 140.576 58.8587 140.576H46.6363L67.6139 116.211C73.0257 110.799 80.3637 107.759 88.0136 107.759ZM39.4202 121.136V133.349L63.787 112.386C69.1988 106.975 72.2395 99.6373 72.2395 91.988V88.0212C72.2395 80.3718 69.1988 73.0344 63.787 67.623L39.4202 46.6423V58.8638C39.4202 62.0327 40.7869 65.0457 43.1672 67.1323L62.2277 83.8663H30V95.5008H62.9386L43.1626 112.863C40.7823 114.954 39.4156 117.967 39.4156 121.132L39.4202 121.136ZM117.057 84.4854H149.995H150V96.1199H117.772L136.833 112.854C139.209 114.941 140.575 117.954 140.575 121.122V133.344L116.208 112.368C110.797 106.956 107.756 99.619 107.756 91.9697V88.0028C107.756 80.3535 110.797 73.016 116.208 67.6046L140.575 46.6423V58.8547C140.575 62.019 139.213 65.0319 136.833 67.1231L117.057 84.4854Z" fill="white"/>
</svg>
