<svg width="550" height="140" viewBox="0 0 550 140" fill="none" xmlns="http://www.w3.org/2000/svg">
<path fill-rule="evenodd" clip-rule="evenodd" d="M456.319 116.667V48.7885H472.316V116.667H456.319ZM464.361 39.1549C461.828 39.1549 459.647 38.3149 457.821 36.6349C455.995 34.9269 455.082 32.8798 455.082 30.492C455.082 28.0762 455.995 26.0291 457.821 24.3507C459.647 22.6411 461.828 21.7871 464.361 21.7871C466.924 21.7871 469.105 22.6411 470.902 24.3507C472.728 26.0291 473.641 28.0762 473.641 30.492C473.641 32.8798 472.728 34.9269 470.902 36.6349C469.105 38.3149 466.924 39.1549 464.361 39.1549ZM192.433 112.293C198.737 116.034 206.044 117.905 214.352 117.905C220.067 117.905 225.003 116.888 229.156 114.855C233.309 112.793 236.977 109.861 240.16 106.061H240.645L241.839 116.667H253.594V69.2938H216.075V82.1085H237.452C237.337 86.0674 236.398 89.5878 234.636 92.6707C232.781 95.9701 230.128 98.5476 226.681 100.405C223.234 102.261 219.154 103.188 214.441 103.188C209.402 103.188 204.969 101.965 201.139 99.5198C197.309 97.0465 194.304 93.4361 192.123 88.6932C189.973 83.9503 188.897 78.1605 188.897 71.3254C188.897 64.5494 190.003 58.8047 192.212 54.0914C194.45 49.3485 197.501 45.7536 201.36 43.3083C205.219 40.8629 209.593 39.6403 214.484 39.6403C217.195 39.6403 219.714 39.9934 222.041 40.7011C224.398 41.3794 226.519 42.3952 228.405 43.75C230.29 45.0754 231.895 46.6963 233.222 48.6112C234.548 50.5261 235.549 52.6774 236.226 55.0636H252.931C252.253 50.6147 250.795 46.5485 248.557 42.8665C246.347 39.1845 243.519 36.0018 240.071 33.3216C236.624 30.6398 232.706 28.5772 228.316 27.1336C223.956 25.6605 219.272 24.9247 214.263 24.9247C208.341 24.9247 202.847 25.9856 197.781 28.1058C192.713 30.198 188.279 33.2625 184.477 37.2976C180.677 41.3047 177.717 46.1814 175.595 51.926C173.475 57.6707 172.414 64.1963 172.414 71.5027C172.414 81.0476 174.181 89.2967 177.717 96.2501C181.253 103.174 186.157 108.52 192.433 112.293ZM283.549 26.1614H267.552V99.8294C267.552 105.751 269.114 110.157 272.236 113.044C275.359 115.931 280.161 117.286 286.643 117.108C288.675 117.049 290.384 116.888 291.769 116.623C293.183 116.357 294.362 116.077 295.305 115.783L292.652 103.675C292.211 103.793 291.71 103.91 291.15 104.028C290.619 104.116 289.824 104.176 288.763 104.205C286.819 104.264 285.464 103.748 284.699 102.657C283.932 101.568 283.549 99.7563 283.549 97.2223V26.1614ZM327.226 117.86C321.894 117.86 317.121 116.491 312.907 113.75C308.695 111.011 305.366 107.033 302.921 101.819C300.475 96.6032 299.253 90.2689 299.253 82.8163C299.253 75.2734 300.489 68.9096 302.964 63.7249C305.469 58.5107 308.843 54.5767 313.085 51.926C317.327 49.2443 322.056 47.9049 327.27 47.9049C331.247 47.9049 334.517 48.5816 337.081 49.9365C339.644 51.2634 341.677 52.8687 343.18 54.7541C344.681 56.6098 345.846 58.3629 346.671 60.0134H347.333V48.7885H363.376V116.667H347.643V105.972H346.671C345.846 107.623 344.653 109.376 343.091 111.232C341.53 113.058 339.467 114.62 336.903 115.915C334.341 117.213 331.115 117.86 327.226 117.86ZM331.689 104.736C335.077 104.736 337.964 103.822 340.35 101.995C342.737 100.139 344.549 97.5614 345.787 94.2621C347.024 90.9627 347.643 87.1174 347.643 82.7276C347.643 78.3378 347.024 74.5221 345.787 71.2818C344.578 68.0416 342.782 65.5216 340.396 63.7249C338.039 61.9283 335.136 61.0292 331.689 61.0292C328.125 61.0292 325.15 61.9578 322.763 63.8136C320.376 65.6694 318.579 68.2329 317.372 71.5027C316.163 74.7725 315.56 78.5152 315.56 82.7276C315.56 86.9696 316.163 90.7558 317.372 94.0847C318.608 97.3841 320.421 99.9912 322.807 101.908C325.223 103.793 328.183 104.736 331.689 104.736ZM390.049 113.75C394.261 116.491 399.034 117.86 404.368 117.86C408.257 117.86 411.481 117.213 414.045 115.915C416.608 114.62 418.671 113.058 420.231 111.232C421.793 109.376 422.986 107.623 423.812 105.972H424.784V116.667H440.516V26.1614H424.475V60.0134H423.812C422.986 58.3629 421.823 56.6098 420.32 54.754C418.817 52.8687 416.784 51.2634 414.222 49.9365C411.659 48.5816 408.389 47.9049 404.411 47.9049C399.197 47.9049 394.468 49.2442 390.226 51.926C385.983 54.5767 382.61 58.5107 380.106 63.7249C377.631 68.9096 376.394 75.2734 376.394 82.8163C376.394 90.2689 377.617 96.6031 380.062 101.819C382.506 107.033 385.836 111.011 390.049 113.75ZM417.492 101.995C415.106 103.822 412.219 104.736 408.831 104.736C405.324 104.736 402.364 103.793 399.948 101.908C397.562 99.9911 395.75 97.384 394.512 94.0847C393.305 90.7558 392.701 86.9696 392.701 82.7276C392.701 78.5152 393.305 74.7725 394.512 71.5027C395.72 68.2329 397.517 65.6694 399.903 63.8136C402.289 61.9578 405.265 61.0291 408.831 61.0291C412.278 61.0291 415.179 61.9283 417.535 63.7249C419.923 65.5216 421.72 68.0416 422.927 71.2818C424.165 74.522 424.784 78.3378 424.784 82.7276C424.784 87.1174 424.165 90.9627 422.927 94.262C421.69 97.5614 419.878 100.139 417.492 101.995ZM498.393 113.75C502.606 116.491 507.378 117.86 512.712 117.86C516.601 117.86 519.826 117.213 522.389 115.915C524.953 114.62 527.016 113.058 528.576 111.232C530.138 109.376 531.331 107.623 532.157 105.972H533.129V116.667H548.86V48.7885H532.819V60.0134H532.157C531.331 58.3629 530.167 56.6098 528.664 54.7541C527.162 52.8687 525.129 51.2634 522.567 49.9365C520.003 48.5816 516.733 47.9049 512.756 47.9049C507.542 47.9049 502.813 49.2443 498.571 51.926C494.327 54.5767 490.955 58.5107 488.45 63.7249C485.975 68.9096 484.739 75.2734 484.739 82.8163C484.739 90.2689 485.961 96.6032 488.407 101.819C490.85 107.033 494.181 111.011 498.393 113.75ZM525.836 101.995C523.45 103.822 520.563 104.736 517.175 104.736C513.669 104.736 510.709 103.793 508.293 101.908C505.907 99.9912 504.094 97.3841 502.856 94.0847C501.649 90.7558 501.046 86.9696 501.046 82.7276C501.046 78.5152 501.649 74.7725 502.856 71.5027C504.065 68.2329 505.862 65.6694 508.248 63.8136C510.634 61.9578 513.61 61.0292 517.175 61.0292C520.622 61.0292 523.523 61.9283 525.88 63.7249C528.268 65.5216 530.064 68.0416 531.272 71.2818C532.51 74.5221 533.129 78.3378 533.129 82.7276C533.129 87.1174 532.51 90.9627 531.272 94.2621C530.035 97.5614 528.223 100.139 525.836 101.995Z" fill="white"/>
<path fill-rule="evenodd" clip-rule="evenodd" d="M73.1956 49.2705H68.5673L68.562 49.2758C59.6371 49.2758 51.0761 45.7286 44.7623 39.4153L20.3045 10.9894H34.5533C38.2452 10.9894 41.7606 12.5838 44.2005 15.3606L64.4634 38.4255V0H78.038V37.5855L97.5625 15.3499C99.997 12.5784 103.512 10.9841 107.21 10.9841H121.469L96.9953 39.41C90.6815 45.7233 82.1205 49.2705 73.1956 49.2705ZM68.578 90.7189H73.2063V90.7242C82.1312 90.7242 90.6922 94.2714 97.006 100.585L121.464 129.011H107.215C103.523 129.011 100.008 127.422 97.5678 124.645L77.3103 101.575V140H63.7357V102.404L44.2112 124.639C41.7766 127.411 38.2613 129.005 34.564 129.005H20.3045L44.7783 100.579C51.0921 94.2661 59.6531 90.7189 68.578 90.7189ZM11.8857 106.326V120.573L40.3137 96.1173C46.6275 89.804 50.175 81.2436 50.175 72.3194V67.6914C50.175 58.7672 46.6275 50.2068 40.3137 43.8935L11.8857 19.416V33.6745C11.8857 37.3715 13.4802 40.8866 16.2572 43.321L38.4945 62.8441H0.895508V76.4176H39.3239L16.2519 96.6737C13.4749 99.1134 11.8804 102.629 11.8804 106.32L11.8857 106.326ZM102.462 63.5663H140.89H140.896V77.1399H103.297L125.534 96.663C128.305 99.0974 129.9 102.612 129.9 106.31V120.568L101.472 96.0959C95.1582 89.7826 91.6107 81.2222 91.6107 72.298V67.67C91.6107 58.7458 95.1582 50.1854 101.472 43.8721L129.9 19.4161V33.6638C129.9 37.3555 128.311 40.8706 125.534 43.3103L102.462 63.5663Z" fill="white"/>
</svg>
